<?xml version="1.0" encoding="UTF-8"?>
<svg width="512" height="512" viewBox="0 0 24 24" xmlns="http://www.w3.org/2000/svg">
  <!-- Simplified Git branch icon, solid color -->
  <rect width="24" height="24" fill="none"/>
  <g fill="#000000">
    <path d="M16 3c-1.1 0-2 .9-2 2 0 .63.31 1.18.78 1.5L9.5 11.78c-.22-.06-.45-.1-.7-.1-1.66 0-3 1.34-3 3s1.34 3 3 3c.25 0 .48-.04.7-.1l5.28 5.28c-.47.32-.78.87-.78 1.5 0 1.1.9 2 2 2s2-.9 2-2-.9-2-2-2c-.63 0-1.18.31-1.5.78L10.22 16.5c.06-.22.1-.45.1-.7 0-1.66-1.34-3-3-3S4.5 14.14 4.5 15.8 5.84 18.8 7.5 18.8c.25 0 .48-.04.7-.1l5.28 5.28C13.5 24 14.05 24.31 14.68 24.31 15.78 24.31 16.68 23.41 16.68 22.31c0-.63-.31-1.18-.78-1.5L12.5 17.22c.22.06.45.1.7.1 1.66 0 3-1.34 3-3s-1.34-3-3-3c-.25 0-.48.04-.7.1L15.5 6.22c.47-.32.78-.87.78-1.5C16.28 3.9 15.38 3 14.28 3z"/>
  </g>
</svg>
